<svg width="24" height="24" viewBox="0 0 24 24" fill="none" xmlns="http://www.w3.org/2000/svg">
<g id="mdi:star-box">
<path id="Vector" d="M19 6C19.5304 6 20.0391 6.21071 20.4142 6.58579C20.7893 6.96086 21 7.46957 21 8V22C21 22.5304 20.7893 23.0391 20.4142 23.4142C20.0391 23.7893 19.5304 24 19 24H5C4.46957 24 3.96086 23.7893 3.58579 23.4142C3.21071 23.0391 3 22.5304 3 22V8C3 7.46957 3.21071 6.96086 3.58579 6.58579C3.96086 6.21071 4.46957 6 5 6H19ZM15.58 20L14.63 15.92L17.79 13.19L13.62 12.83L12 9L10.38 12.84L6.21 13.2L9.37 15.93L8.42 20L12 17.84L15.58 20Z" fill="#FE6B7E"/>
</g>
</svg>
